HIERARCHY
ROOT Hips
{
  OFFSET 0.0000 0.0000 0.0000
  CHANNELS 6 Xposition Yposition Zposition Zrotation Xrotation Yrotation
  JOINT LeftHip
  {
    OFFSET 5.5000 0.0000 -0.0000
    CHANNELS 3 Zrotation Xrotation Yrotation
    JOINT LeftKnee
    {
      OFFSET 0.0000 -17.5000 0.0000
      CHANNELS 3 Zrotation Xrotation Yrotation
      JOINT LeftAnkle
      {
        OFFSET 0.0000 -17.0000 0.0000
        CHANNELS 3 Zrotation Xrotation Yrotation
        End Site
        {
            OFFSET 0.0000 -4.7000 -2.0000
        }
      }
    }
  }
  JOINT RightHip
  {
    OFFSET -5.5000 0.0000 -0.0000
    CHANNELS 3 Zrotation Xrotation Yrotation
    JOINT RightKnee
    {
      OFFSET 0.0000 -17.5000 0.0000
      CHANNELS 3 Zrotation Xrotation Yrotation
      JOINT RightAnkle
      {
        OFFSET 0.0000 -17.0000 0.0000
        CHANNELS 3 Zrotation Xrotation Yrotation
        End Site
        {
            OFFSET 0.0000 -4.7000 -2.0000
        }
      }
    }
  }
  JOINT Chest
  {
    OFFSET 0.0000 3.0000 -1.0000
    CHANNELS 3 Zrotation Xrotation Yrotation
    JOINT LeftCollar
    {
      OFFSET -0.0000 18.0000 1.0000
      CHANNELS 3 Zrotation Xrotation Yrotation
      JOINT LeftShoulder
      {
        OFFSET 6.5000 -0.0000 0.0000
        CHANNELS 3 Zrotation Xrotation Yrotation
        JOINT LeftElbow
        {
          OFFSET 0.0000 -11.0000 -0.0000
          CHANNELS 3 Zrotation Xrotation Yrotation
          JOINT LeftWrist
          {
            OFFSET 0.0000 -10.5000 0.0000
            CHANNELS 3 Zrotation Xrotation Yrotation
            End Site
            {
                OFFSET 0.0000 -6.0000 0.0000
            }
          }
        }
      }
    }
    JOINT RightCollar
    {
      OFFSET -0.0000 18.0000 1.0000
      CHANNELS 3 Zrotation Xrotation Yrotation
      JOINT RightShoulder
      {
        OFFSET -6.5000 0.0000 0.0000
        CHANNELS 3 Zrotation Xrotation Yrotation
        JOINT RightElbow
        {
          OFFSET 0.0000 -11.0000 0.0000
          CHANNELS 3 Zrotation Xrotation Yrotation
          JOINT RightWrist
          {
            OFFSET 0.0000 -10.5000 -0.0000
            CHANNELS 3 Zrotation Xrotation Yrotation
            End Site
            {
                OFFSET -0.0000 -6.0000 0.0000
            }
          }
        }
      }
    }
    JOINT Neck
    {
      OFFSET -0.0000 18.0000 1.0000
      CHANNELS 3 Zrotation Xrotation Yrotation
      JOINT Head
      {
        OFFSET 0.0000 3.0000 0.0000
        CHANNELS 3 Zrotation Xrotation Yrotation
        End Site
        {
            OFFSET 0.0000 7.0000 0.0000
        }
      }
    }
  }
}
MOTION
Frames:	14
Frame Time:	0.033333
-0.7580 39.0204 -0.6550 0.15 -0.23 -0.37 -0.60 -14.30 -0.41 -0.00 33.49 1.31 0.01 -14.24 0.45 2.52 -14.17 0.25 0.00 33.43 -0.14 -2.52 -15.43 -1.61 -0.00 7.87 -0.07 0.00 0.00 0.00 9.66 -11.98 -4.21 0.00 -10.82 1.03 -13.26 2.86 -21.47 0.00 0.00 0.00 -10.79 -11.45 3.19 0.00 -11.74 -1.12 11.85 2.14 16.48 0.00 0.00 0.00 -0.32 -11.21 -0.17 
-0.7587 39.0206 -0.6600 0.15 -0.23 -0.37 -0.60 -14.31 -0.40 -0.00 33.49 1.32 -0.00 -14.23 0.43 2.52 -14.17 0.26 -0.00 33.43 -0.13 -2.53 -15.42 -1.62 -0.00 7.87 -0.07 0.00 0.00 0.00 9.67 -11.98 -4.22 -0.00 -10.82 1.02 -13.26 2.86 -21.46 0.00 0.00 0.00 -10.80 -11.45 3.18 -0.00 -11.75 -1.13 11.85 2.15 16.51 0.00 0.00 0.00 -0.32 -11.21 -0.18 
-0.7680 39.0213 -0.6706 0.15 -0.23 -0.37 -0.58 -14.33 -0.39 0.00 33.48 1.34 -0.02 -14.21 0.39 2.54 -14.19 0.27 -0.00 33.42 -0.12 -2.55 -15.40 -1.65 0.00 7.87 -0.06 0.00 0.00 0.00 9.67 -11.97 -4.22 -0.00 -10.81 1.01 -13.27 2.83 -21.48 0.00 0.00 0.00 -10.81 -11.45 3.19 -0.00 -11.79 -1.12 11.85 2.17 16.52 0.00 0.00 0.00 -0.32 -11.18 -0.19 
-0.7877 39.0219 -0.6779 0.15 -0.23 -0.36 -0.54 -14.34 -0.37 0.00 33.49 1.36 -0.05 -14.20 0.34 2.58 -14.19 0.28 0.00 33.41 -0.10 -2.59 -15.38 -1.70 -0.00 7.87 -0.06 0.00 0.00 0.00 9.68 -11.95 -4.23 0.00 -10.78 1.00 -13.28 2.78 -21.51 0.00 0.00 0.00 -10.81 -11.44 3.21 -0.00 -11.84 -1.07 11.85 2.19 16.53 0.00 0.00 0.00 -0.30 -11.12 -0.19 
-0.8148 39.0215 -0.6761 0.15 -0.23 -0.36 -0.49 -14.35 -0.36 0.00 33.50 1.38 -0.11 -14.21 0.29 2.63 -14.19 0.30 0.00 33.41 -0.08 -2.64 -15.38 -1.75 -0.01 7.87 -0.05 0.00 0.00 0.00 9.67 -11.91 -4.24 -0.00 -10.75 1.00 -13.28 2.72 -21.57 0.00 0.00 0.00 -10.84 -11.43 3.25 -0.00 -11.92 -1.01 11.86 2.20 16.53 0.00 0.00 0.00 -0.32 -11.02 -0.20 
-0.8557 39.0200 -0.6760 0.15 -0.23 -0.35 -0.41 -14.36 -0.34 0.00 33.52 1.40 -0.18 -14.22 0.22 2.70 -14.19 0.31 -0.00 33.41 -0.07 -2.72 -15.38 -1.82 -0.00 7.87 -0.04 0.00 0.00 0.00 9.64 -11.85 -4.26 -0.00 -10.71 1.00 -13.26 2.63 -21.65 0.00 0.00 0.00 -10.88 -11.42 3.32 -0.00 -11.99 -0.91 11.88 2.19 16.53 0.00 0.00 0.00 -0.34 -10.90 -0.21 
-0.9104 39.0180 -0.6800 0.15 -0.23 -0.34 -0.32 -14.38 -0.33 -0.00 33.55 1.42 -0.28 -14.22 0.15 2.80 -14.19 0.33 0.00 33.41 -0.06 -2.82 -15.37 -1.88 -0.01 7.88 -0.03 0.00 0.00 0.00 9.61 -11.79 -4.28 -0.00 -10.70 1.00 -13.24 2.58 -21.73 0.00 0.00 0.00 -10.93 -11.40 3.41 -0.00 -12.07 -0.80 11.90 2.19 16.54 0.00 0.00 0.00 -0.37 -10.77 -0.22 
-0.9756 39.0151 -0.6634 0.16 -0.23 -0.33 -0.20 -14.37 -0.31 0.00 33.59 1.43 -0.40 -14.27 0.06 2.91 -14.17 0.34 -0.00 33.42 -0.04 -2.94 -15.40 -1.96 -0.00 7.88 -0.02 0.00 0.00 0.00 9.58 -11.73 -4.29 0.00 -10.71 1.01 -13.24 2.55 -21.82 0.00 0.00 0.00 -10.96 -11.40 3.54 0.00 -12.16 -0.69 11.90 2.19 16.56 0.00 0.00 0.00 -0.39 -10.65 -0.21 
-1.0341 39.0093 -0.6184 0.16 -0.23 -0.32 -0.10 -14.33 -0.30 -0.00 33.66 1.45 -0.51 -14.38 -0.01 3.01 -14.11 0.35 0.00 33.46 -0.04 -3.05 -15.50 -2.03 -0.01 7.88 -0.01 0.00 0.00 0.00 9.56 -11.67 -4.31 0.00 -10.72 1.01 -13.23 2.51 -21.91 0.00 0.00 0.00 -10.99 -11.40 3.68 0.00 -12.24 -0.58 11.91 2.19 16.62 0.00 0.00 0.00 -0.41 -10.56 -0.21 
-1.1226 39.0017 -0.6113 0.17 -0.23 -0.31 0.05 -14.34 -0.28 -0.00 33.72 1.47 -0.68 -14.42 -0.11 3.17 -14.10 0.37 0.00 33.48 -0.03 -3.21 -15.52 -2.12 -0.01 7.88 0.00 0.00 0.00 0.00 9.55 -11.61 -4.31 -0.00 -10.74 1.01 -13.25 2.50 -22.00 0.00 0.00 0.00 -11.00 -11.42 3.84 0.00 -12.30 -0.50 11.90 2.20 16.71 0.00 0.00 0.00 -0.43 -10.52 -0.19 
-1.1825 38.9955 -0.6179 0.17 -0.24 -0.29 0.16 -14.38 -0.27 -0.00 33.77 1.48 -0.79 -14.43 -0.19 3.27 -14.12 0.38 -0.00 33.50 -0.02 -3.32 -15.52 -2.20 -0.01 7.88 0.02 0.00 0.00 0.00 9.54 -11.57 -4.31 0.00 -10.78 1.02 -13.26 2.52 -22.09 0.00 0.00 0.00 -11.01 -11.44 4.00 0.00 -12.35 -0.44 11.90 2.22 16.87 0.00 0.00 0.00 -0.45 -10.52 -0.18 
-1.1825 38.9914 -0.6006 0.17 -0.24 -0.27 0.16 -14.36 -0.24 -0.00 33.80 1.49 -0.79 -14.47 -0.24 3.28 -14.10 0.41 0.00 33.54 -0.02 -3.32 -15.57 -2.24 -0.01 7.88 0.03 0.00 0.00 0.00 9.53 -11.53 -4.31 -0.00 -10.82 1.02 -13.28 2.53 -22.17 0.00 0.00 0.00 -11.01 -11.45 4.13 0.00 -12.38 -0.43 11.89 2.23 17.10 0.00 0.00 0.00 -0.46 -10.54 -0.18 
-1.1935 38.9871 -0.5581 0.18 -0.24 -0.25 0.19 -14.32 -0.22 0.00 33.86 1.49 -0.81 -14.57 -0.29 3.30 -14.05 0.43 0.00 33.59 -0.02 -3.34 -15.67 -2.30 -0.01 7.88 0.05 0.00 0.00 0.00 9.53 -11.50 -4.30 0.00 -10.87 1.03 -13.30 2.57 -22.27 0.00 0.00 0.00 -11.02 -11.47 4.26 -0.00 -12.39 -0.44 11.89 2.25 17.37 0.00 0.00 0.00 -0.48 -10.60 -0.17 
-1.2596 38.9803 -0.5516 0.18 -0.25 -0.23 0.30 -14.33 -0.21 -0.00 33.91 1.51 -0.93 -14.60 -0.38 3.42 -14.04 0.45 0.00 33.62 -0.02 -3.46 -15.69 -2.37 -0.01 7.88 0.06 0.00 0.00 0.00 9.53 -11.46 -4.31 0.00 -10.90 1.03 -13.33 2.58 -22.35 0.00 0.00 0.00 -11.02 -11.48 4.37 -0.00 -12.39 -0.47 11.88 2.24 17.66 0.00 0.00 0.00 -0.50 -10.66 -0.17 
